
<svg width="0" height="0" class="hidden">
  <symbol  xmlns="http://www.w3.org/2000/svg" viewBox="0 0 15 14" id="icon-cart">
    <path fill-rule="evenodd" clip-rule="evenodd" d="M1.16667 0.107941C0.798477 0.107941 0.5 0.406418 0.5 0.774607C0.5 1.1428 0.798477 1.44127 1.16667 1.44127H2.93794L3.40537 3.77666C3.40821 3.79461 3.41176 3.81232 3.416 3.82976L4.38338 8.66309L4.3835 8.66365C4.46706 9.08366 4.69562 9.46093 5.02921 9.72948C5.36111 9.99666 5.77595 10.1393 6.20183 10.1328H11.8225C12.2484 10.1393 12.6633 9.99666 12.9952 9.72948C13.3289 9.46081 13.5575 9.08332 13.641 8.66309L13.641 8.6631L13.642 8.6581L14.5691 3.79666C14.6063 3.60149 14.5545 3.39989 14.4279 3.24681C14.3012 3.09372 14.1129 3.00511 13.9142 3.00511H4.61072L4.1381 0.643769C4.07574 0.332198 3.80215 0.107941 3.4844 0.107941H1.16667ZM5.69098 8.40238L4.87759 4.33844H13.1084L12.3328 8.4053C12.31 8.51782 12.2485 8.61884 12.1591 8.69085C12.0691 8.76329 11.9565 8.80177 11.841 8.79956L11.841 8.79943H11.8282H6.19614V8.79931L6.18337 8.79956C6.06787 8.80177 5.95528 8.76329 5.8653 8.69085C5.77531 8.61842 5.71368 8.51664 5.69117 8.40334L5.69098 8.40238ZM4.55739 12.3634C4.55739 11.6754 5.1151 11.1177 5.80307 11.1177C6.49105 11.1177 7.04876 11.6754 7.04876 12.3634C7.04876 13.0513 6.49105 13.6091 5.80307 13.6091C5.1151 13.6091 4.55739 13.0513 4.55739 12.3634ZM10.9307 12.3634C10.9307 11.6754 11.4884 11.1177 12.1764 11.1177C12.8644 11.1177 13.4221 11.6754 13.4221 12.3634C13.4221 13.0513 12.8644 13.6091 12.1764 13.6091C11.4884 13.6091 10.9307 13.0513 10.9307 12.3634Z"></path>
  </symbol>
  <symbol  xmlns="http://www.w3.org/2000/svg" viewBox="0 0 16 17" id="icon-login">
    <path fill-rule="evenodd" clip-rule="evenodd" d="M9 2.52461C9 2.15642 9.29848 1.85794 9.66667 1.85794H12.3333C12.8638 1.85794 13.3725 2.06865 13.7475 2.44373C14.1226 2.8188 14.3333 3.32751 14.3333 3.85794V13.1913C14.3333 13.7217 14.1226 14.2304 13.7475 14.6055C13.3725 14.9806 12.8638 15.1913 12.3333 15.1913H9.66667C9.29848 15.1913 9 14.8928 9 14.5246C9 14.1564 9.29848 13.8579 9.66667 13.8579H12.3333C12.5101 13.8579 12.6797 13.7877 12.8047 13.6627C12.9298 13.5377 13 13.3681 13 13.1913V3.85794C13 3.68113 12.9298 3.51156 12.8047 3.38654C12.6797 3.26151 12.5101 3.19127 12.3333 3.19127H9.66667C9.29848 3.19127 9 2.8928 9 2.52461ZM5.86189 4.71987C6.12224 4.45952 6.54435 4.45952 6.8047 4.71987L10.1338 8.04897C10.1509 8.06579 10.1671 8.08353 10.1824 8.1021C10.2142 8.1409 10.2411 8.18246 10.2628 8.22589C10.3079 8.31575 10.3333 8.41721 10.3333 8.52461C10.3333 8.63323 10.3074 8.73579 10.2613 8.8264C10.241 8.86635 10.2164 8.90469 10.1876 8.94072C10.1708 8.96172 10.1527 8.98169 10.1335 9.0005L6.8047 12.3293C6.54435 12.5897 6.12224 12.5897 5.86189 12.3293C5.60154 12.069 5.60154 11.6469 5.86189 11.3865L8.05715 9.19127H1.66667C1.29848 9.19127 1 8.8928 1 8.52461C1 8.15642 1.29848 7.85794 1.66667 7.85794H8.05715L5.86189 5.66268C5.60154 5.40233 5.60154 4.98022 5.86189 4.71987Z"></path>
  </symbol>
  <symbol  xmlns="http://www.w3.org/2000/svg" viewBox="0 0 16 17" id="icon-search">
    <path fill-rule="evenodd" clip-rule="evenodd" d="M2.66329 8.18794C2.66329 5.61061 4.75263 3.52128 7.32996 3.52128C9.90729 3.52128 11.9966 5.61061 11.9966 8.18794C11.9966 9.44522 11.4994 10.5864 10.6909 11.4255C10.6681 11.443 10.6461 11.4623 10.6252 11.4832C10.6043 11.5041 10.585 11.5261 10.5675 11.5489C9.72835 12.3574 8.58722 12.8546 7.32996 12.8546C4.75263 12.8546 2.66329 10.7653 2.66329 8.18794ZM11.0751 12.8759C10.0486 13.697 8.74662 14.1879 7.32996 14.1879C4.01625 14.1879 1.32996 11.5017 1.32996 8.18794C1.32996 4.87423 4.01625 2.18794 7.32996 2.18794C10.6437 2.18794 13.33 4.87423 13.33 8.18794C13.33 9.60463 12.839 10.9066 12.0179 11.9331L14.468 14.3832C14.7284 14.6436 14.7284 15.0657 14.468 15.326C14.2077 15.5864 13.7855 15.5864 13.5252 15.326L11.0751 12.8759Z"></path>
  </symbol>
</svg>

<svg width="0" height="0" class="hidden">
<symbol xmlns="http://www.w3.org/2000/svg" viewBox="0 0 24 24" id="icon-youtube">
    <path d="M14.0037 11.7913L11.1963 10.4813C10.9513 10.3675 10.75 10.495 10.75 10.7662V13.2338C10.75 13.505 10.9513 13.6325 11.1963 13.5188L14.0025 12.2087C14.2488 12.0938 14.2487 11.9063 14.0037 11.7913ZM12 0C5.3725 0 0 5.3725 0 12C0 18.6275 5.3725 24 12 24C18.6275 24 24 18.6275 24 12C24 5.3725 18.6275 0 12 0ZM12 16.875C5.8575 16.875 5.75 16.3213 5.75 12C5.75 7.67875 5.8575 7.125 12 7.125C18.1425 7.125 18.25 7.67875 18.25 12C18.25 16.3213 18.1425 16.875 12 16.875Z" fill="#FCFCFC"></path>
  </symbol>
  <symbol xmlns="http://www.w3.org/2000/svg" viewBox="0 0 24 24" id="icon-vk">
    <path fill-rule="evenodd" clip-rule="evenodd" d="M24 12C24 18.6274 18.6274 24 12 24C5.37258 24 0 18.6274 0 12C0 5.37258 5.37258 0 12 0C18.6274 0 24 5.37258 24 12ZM12.5884 14.9749H11.8711C11.8711 14.9749 10.2885 15.0584 8.89479 13.7867C7.37486 12.3995 6.03249 9.64702 6.03249 9.64702C6.03249 9.64702 5.95511 9.46654 6.03917 9.3793C6.13366 9.28121 6.39106 9.27493 6.39106 9.27493L8.10567 9.26508C8.10567 9.26508 8.26727 9.28878 8.38294 9.36317C8.47824 9.42457 8.53167 9.53936 8.53167 9.53936C8.53167 9.53936 8.80878 10.1536 9.17581 10.7093C9.89212 11.7942 10.2258 12.0315 10.469 11.9152C10.8233 11.7458 10.7171 10.3816 10.7171 10.3816C10.7171 10.3816 10.7236 9.88646 10.5387 9.66601C10.3955 9.4951 10.1254 9.44527 10.0062 9.43128C9.90971 9.42 10.0681 9.22367 10.2733 9.13558C10.5819 9.00308 11.1268 8.99551 11.7706 9.00136C12.2722 9.00579 12.4165 9.0332 12.6127 9.07475C13.0677 9.17105 13.0536 9.47963 13.0229 10.1454C13.0138 10.3444 13.0032 10.5752 13.0032 10.8418C13.0032 10.9018 13.0012 10.9657 12.9991 11.0315C12.9885 11.3725 12.9763 11.7629 13.2324 11.908C13.3637 11.9822 13.6849 11.9191 14.4884 10.7233C14.8693 10.1566 15.1549 9.49024 15.1549 9.49024C15.1549 9.49024 15.2173 9.37145 15.3142 9.32048C15.4134 9.26851 15.5472 9.2845 15.5472 9.2845L17.3515 9.27465C17.3515 9.27465 17.8937 9.21796 17.9815 9.43242C18.0735 9.65758 17.7788 10.1833 17.0417 11.0444C16.3463 11.8567 16.006 12.1587 16.0328 12.4236C16.0527 12.6198 16.2739 12.7957 16.7015 13.1436C17.5897 13.8661 17.8264 14.2455 17.8827 14.3357C17.8872 14.343 17.8906 14.3484 17.893 14.3519C18.2905 14.9296 17.4522 14.9749 17.4522 14.9749L15.8497 14.9944C15.8497 14.9944 15.5053 15.0543 15.0521 14.7814C14.8151 14.6388 14.5833 14.406 14.3626 14.1842C14.0251 13.8451 13.7131 13.5316 13.4469 13.6056C13.0002 13.7298 13.0143 14.5734 13.0143 14.5734C13.0143 14.5734 13.0175 14.7536 12.9157 14.8495C12.8051 14.954 12.5884 14.9749 12.5884 14.9749Z" fill="#FCFCFC"></path>
  </symbol>
  <symbol xmlns="http://www.w3.org/2000/svg" viewBox="0 0 24 24" id="icon-telegram">
    <path fill-rule="evenodd" clip-rule="evenodd" d="M24 12C24 18.627 18.627 24 12 24C5.373 24 0 18.627 0 12C0 5.373 5.373 0 12 0C18.627 0 24 5.373 24 12ZM12.43 8.859C11.263 9.344 8.93 10.349 5.432 11.873C4.864 12.099 4.566 12.32 4.539 12.536C4.493 12.902 4.951 13.046 5.573 13.241C5.658 13.268 5.746 13.295 5.836 13.325C6.449 13.524 7.273 13.757 7.701 13.766C8.09 13.774 8.524 13.614 9.003 13.286C12.271 11.079 13.958 9.964 14.064 9.94C14.139 9.923 14.243 9.901 14.313 9.964C14.383 10.026 14.376 10.144 14.369 10.176C14.323 10.369 12.529 12.038 11.599 12.902C11.309 13.171 11.104 13.362 11.062 13.406C10.968 13.503 10.872 13.596 10.78 13.685C10.21 14.233 9.784 14.645 10.804 15.317C11.294 15.64 11.686 15.907 12.077 16.173C12.504 16.464 12.93 16.754 13.482 17.116C13.622 17.208 13.756 17.303 13.887 17.396C14.384 17.751 14.831 18.069 15.383 18.019C15.703 17.989 16.035 17.688 16.203 16.789C16.6 14.663 17.382 10.059 17.563 8.161C17.574 8.00341 17.5673 7.84509 17.543 7.689C17.5285 7.56293 17.4671 7.44693 17.371 7.364C17.228 7.247 17.006 7.222 16.906 7.224C16.455 7.232 15.763 7.473 12.43 8.859Z" fill="#FCFCFC"></path>
  </symbol>
</svg>


<svg width="0" height="0" class="hidden">
  <symbol xmlns="http://www.w3.org/2000/svg" viewBox="0 0 38 38" id="arrow-sl">
    <path fill-rule="evenodd" clip-rule="evenodd" d="M19.8647 24.1352C20.1244 24.3949 20.5455 24.3949 20.8052 24.1352C21.0649 23.8755 21.0649 23.4545 20.8052 23.1948L16.6039 18.9935L20.8052 14.7922C21.0649 14.5325 21.0649 14.1114 20.8052 13.8517C20.5455 13.592 20.1245 13.592 19.8648 13.8517L15.1961 18.5205C15.1951 18.5214 15.1942 18.5223 15.1932 18.5233C14.9335 18.783 14.9335 19.204 15.1932 19.4637L19.8647 24.1352Z" fill="#FCFCFC"></path>

  </symbol>
</svg>


<svg width="0" height="0" class="hidden">
  <symbol  xmlns="http://www.w3.org/2000/svg" viewBox="0 0 15 14" id="icon-cart-1">
    <path fill-rule="evenodd" clip-rule="evenodd" d="M1.16667 0.25C0.798477 0.25 0.5 0.548477 0.5 0.916667C0.5 1.28486 0.798477 1.58333 1.16667 1.58333H2.93794L3.40537 3.91872C3.40821 3.93667 3.41176 3.95438 3.416 3.97182L4.38338 8.80515L4.3835 8.80571C4.46706 9.22572 4.69562 9.60299 5.02921 9.87153C5.36111 10.1387 5.77595 10.2813 6.20183 10.2748H11.8225C12.2484 10.2813 12.6633 10.1387 12.9952 9.87153C13.3289 9.60287 13.5575 9.22538 13.641 8.80515L13.641 8.80515L13.642 8.80016L14.5691 3.93872C14.6063 3.74355 14.5545 3.54195 14.4279 3.38887C14.3012 3.23578 14.1129 3.14716 13.9142 3.14716H4.61072L4.1381 0.785829C4.07574 0.474257 3.80215 0.25 3.4844 0.25H1.16667ZM5.69098 8.54444L4.87759 4.4805H13.1084L12.3328 8.54736C12.31 8.65988 12.2485 8.7609 12.1591 8.83291C12.0691 8.90535 11.9565 8.94383 11.841 8.94162L11.841 8.94149H11.8282H6.19614V8.94137L6.18337 8.94162C6.06787 8.94383 5.95528 8.90535 5.8653 8.83291C5.77531 8.76048 5.71368 8.6587 5.69117 8.5454L5.69098 8.54444ZM4.55739 12.5054C4.55739 11.8175 5.1151 11.2597 5.80307 11.2597C6.49105 11.2597 7.04876 11.8175 7.04876 12.5054C7.04876 13.1934 6.49105 13.7511 5.80307 13.7511C5.1151 13.7511 4.55739 13.1934 4.55739 12.5054ZM10.9307 12.5054C10.9307 11.8175 11.4884 11.2597 12.1764 11.2597C12.8644 11.2597 13.4221 11.8175 13.4221 12.5054C13.4221 13.1934 12.8644 13.7511 12.1764 13.7511C11.4884 13.7511 10.9307 13.1934 10.9307 12.5054Z" fill="#2D3440"></path>
  </symbol>
</svg>
